<svg id="Слой_1" data-name="Слой 1" xmlns="http://www.w3.org/2000/svg" viewBox="0 0 35 35"><title>icons</title><path d="M24.62,13.94a4.15,4.15,0,0,0-4.07-3.19,5.16,5.16,0,0,0-3,1.07,5.16,5.16,0,0,0-3.06-1.09,4.16,4.16,0,0,0-4.07,3.18c-.7,2.58.61,6.53,6.36,9.92l.74.44.74-.43C24,20.47,25.32,16.52,24.62,13.94Zm-7.14,8.64h0c-5.05-3-6.25-6.23-5.69-8.28a2.74,2.74,0,0,1,2.66-2.11A3.88,3.88,0,0,1,17,13.3l.48.43L18,13.3a3.91,3.91,0,0,1,2.56-1.1,2.74,2.74,0,0,1,2.67,2.12c.55,2.05-.66,5.31-5.73,8.26Z"/></svg>