<svg id="Слой_1" data-name="Слой 1" xmlns="http://www.w3.org/2000/svg" viewBox="0 0 35 35"><title>icons</title><path d="M13.59,20a2.58,2.58,0,0,0,1.71-.66L19,21.17a2.57,2.57,0,1,0,.66-1L16,18.36a2.49,2.49,0,0,0-.05-1.84l3.62-1.76a2.55,2.55,0,1,0,.09-3.6A2.53,2.53,0,0,0,19,13.71L15.2,15.54A2.54,2.54,0,1,0,13.59,20Zm7.8.61A1.34,1.34,0,1,1,20.06,22h0a1.34,1.34,0,0,1,1.33-1.34Zm0-9A1.34,1.34,0,1,1,20.06,13a1.33,1.33,0,0,1,1.33-1.33Zm-7.8,4.48a1.34,1.34,0,1,1-1.34,1.33A1.33,1.33,0,0,1,13.59,16.16Z"/></svg>