<svg id="Слой_1" data-name="Слой 1" xmlns="http://www.w3.org/2000/svg" viewBox="0 0 100 100"><defs><style>.cls-1{fill:none;stroke:#f19106;stroke-linejoin:bevel;stroke-width:4px;}</style></defs><title>icons</title><path class="cls-1" d="M71.29,87.13l-1.46-5.69A41.44,41.44,0,0,1,50,86.36,41.47,41.47,0,0,1,30.19,81.5L28.39,88a44,44,0,0,0,4.09,1.8"/><path class="cls-1" d="M40.57,58.7,36,78.33l-1.24,5.25a41.1,41.1,0,0,0,5.88,1.74l1.64-7,3.28-14h8.86l3.28,14,1.65,7a40.09,40.09,0,0,0,5.87-1.74l-1.24-5.27L59.33,58.7Z"/><line class="cls-1" x1="9.56" y1="91.45" x2="90.44" y2="85.79"/><path class="cls-1" d="M47.11,58.7a3,3,0,0,1,0-.42,2.89,2.89,0,0,1,5.78,0,3,3,0,0,1,0,.42"/><circle class="cls-1" cx="49.97" cy="50.57" r="2.89"/><circle class="cls-1" cx="49.97" cy="39.98" r="5.78"/></svg>