<svg id="Слой_1" data-name="Слой 1" xmlns="http://www.w3.org/2000/svg" viewBox="0 0 100 100"><defs><style>.cls-1,.cls-3{fill:none;stroke:#f19106;stroke-linejoin:bevel;}.cls-1{stroke-width:4px;}.cls-2{fill:#f19106;}.cls-3{stroke-width:2px;}</style></defs><title>icons</title><polyline class="cls-1" points="24.44 90.63 25.69 61.99 65.86 61.99 67.01 87.65"/><path class="cls-2" d="M50.22,69.56A2.05,2.05,0,0,0,48,71.38a2.27,2.27,0,0,0-4.45,0,2.26,2.26,0,0,0-4.44,0v6.07l13.33-.74V71.38A2.05,2.05,0,0,0,50.22,69.56Z"/><path class="cls-2" d="M48.62,84.32a1.5,1.5,0,0,0-1.42.84,1.63,1.63,0,0,0-2.85,0,1.5,1.5,0,0,0-1.42-.84,1.39,1.39,0,0,0-1.51,1.23V88l8.71-.74V85.55A1.39,1.39,0,0,0,48.62,84.32Z"/><polygon class="cls-1" points="18.67 61.99 27.88 55.36 45.78 17.2 63.67 55.36 72.88 61.99 18.67 61.99"/><ellipse class="cls-1" cx="45.78" cy="16.51" rx="0.84" ry="0.68"/><line class="cls-3" x1="45.78" y1="8.55" x2="45.78" y2="15.83"/><line class="cls-3" x1="48.06" y1="10.88" x2="43.5" y2="10.88"/><line class="cls-1" x1="27.88" y1="55.36" x2="63.67" y2="55.36"/><line class="cls-1" x1="5.34" y1="91.45" x2="86.21" y2="85.79"/></svg>