<svg id="Слой_1" data-name="Слой 1" xmlns="http://www.w3.org/2000/svg" viewBox="0 0 100 100"><defs><style>.cls-1{fill:none;stroke:#f19106;stroke-linejoin:bevel;stroke-width:4px;}.cls-2{fill:#f19106;}</style></defs><title>icons</title><line class="cls-1" x1="9.56" y1="91.45" x2="90.44" y2="85.79"/><path class="cls-1" d="M62.79,56.14H37.39a12.77,12.77,0,0,1,25.4,0Z"/><path class="cls-2" d="M52.8,42.69V45a12.81,12.81,0,0,0-5.42,0V42.69A2.71,2.71,0,0,1,50.09,40h0A2.72,2.72,0,0,1,52.8,42.69Z"/><rect class="cls-1" x="35.09" y="56.14" width="29.99" height="2.71"/><polyline class="cls-1" points="62.79 88.83 62.79 58.85 37.39 58.85 37.39 90.61"/><circle class="cls-1" cx="50.09" cy="73.15" r="2.55"/><circle class="cls-1" cx="50.09" cy="73.15" r="7.99"/><path class="cls-2" d="M66.06,69.77h0a2.78,2.78,0,0,1,2.78,2.78v1.18a2.78,2.78,0,0,1-2.78,2.78h0a0,0,0,0,1,0,0V69.77A0,0,0,0,1,66.06,69.77Z"/><path class="cls-2" d="M34.11,69.77h0a0,0,0,0,1,0,0v6.74a0,0,0,0,1,0,0h0a2.78,2.78,0,0,1-2.78-2.78V72.55A2.78,2.78,0,0,1,34.11,69.77Z"/><rect class="cls-2" x="62.79" y="65.15" width="3.28" height="15.99"/><rect class="cls-2" x="34.11" y="65.15" width="3.28" height="15.99"/></svg>